<svg class="rich-terminal" viewBox="0 0 1482 928.4" xmlns="http://www.w3.org/2000/svg">
    <!-- Generated with Rich https://www.textualize.io -->
    <style>

    @font-face {
        font-family: "Fira Code";
        src: local("FiraCode-Regular"),
                url("https://cdnjs.cloudflare.com/ajax/libs/firacode/6.2.0/woff2/FiraCode-Regular.woff2") format("woff2"),
                url("https://cdnjs.cloudflare.com/ajax/libs/firacode/6.2.0/woff/FiraCode-Regular.woff") format("woff");
        font-style: normal;
        font-weight: 400;
    }
    @font-face {
        font-family: "Fira Code";
        src: local("FiraCode-Bold"),
                url("https://cdnjs.cloudflare.com/ajax/libs/firacode/6.2.0/woff2/FiraCode-Bold.woff2") format("woff2"),
                url("https://cdnjs.cloudflare.com/ajax/libs/firacode/6.2.0/woff/FiraCode-Bold.woff") format("woff");
        font-style: bold;
        font-weight: 700;
    }

    .terminal-3931764673-matrix {
        font-family: Fira Code, monospace;
        font-size: 20px;
        line-height: 24.4px;
        font-variant-east-asian: full-width;
    }

    .terminal-3931764673-title {
        font-size: 18px;
        font-weight: bold;
        font-family: arial;
    }

    .terminal-3931764673-r1 { fill: #c5c8c6 }
.terminal-3931764673-r2 { fill: #cba6f7;font-weight: bold }
.terminal-3931764673-r3 { fill: #cdd6f4;font-weight: bold }
.terminal-3931764673-r4 { fill: #cdd6f4;font-weight: bold;text-decoration: underline; }
.terminal-3931764673-r5 { fill: #cdd6f4 }
.terminal-3931764673-r6 { fill: #cdd6f4;text-decoration: underline; }
.terminal-3931764673-r7 { fill: #89b4fa }
.terminal-3931764673-r8 { fill: #6c7086 }
    </style>

    <defs>
    <clipPath id="terminal-3931764673-clip-terminal">
      <rect x="0" y="0" width="1463.0" height="877.4" />
    </clipPath>
    <clipPath id="terminal-3931764673-line-0">
    <rect x="0" y="1.5" width="1464" height="24.65"/>
            </clipPath>
<clipPath id="terminal-3931764673-line-1">
    <rect x="0" y="25.9" width="1464" height="24.65"/>
            </clipPath>
<clipPath id="terminal-3931764673-line-2">
    <rect x="0" y="50.3" width="1464" height="24.65"/>
            </clipPath>
<clipPath id="terminal-3931764673-line-3">
    <rect x="0" y="74.7" width="1464" height="24.65"/>
            </clipPath>
<clipPath id="terminal-3931764673-line-4">
    <rect x="0" y="99.1" width="1464" height="24.65"/>
            </clipPath>
<clipPath id="terminal-3931764673-line-5">
    <rect x="0" y="123.5" width="1464" height="24.65"/>
            </clipPath>
<clipPath id="terminal-3931764673-line-6">
    <rect x="0" y="147.9" width="1464" height="24.65"/>
            </clipPath>
<clipPath id="terminal-3931764673-line-7">
    <rect x="0" y="172.3" width="1464" height="24.65"/>
            </clipPath>
<clipPath id="terminal-3931764673-line-8">
    <rect x="0" y="196.7" width="1464" height="24.65"/>
            </clipPath>
<clipPath id="terminal-3931764673-line-9">
    <rect x="0" y="221.1" width="1464" height="24.65"/>
            </clipPath>
<clipPath id="terminal-3931764673-line-10">
    <rect x="0" y="245.5" width="1464" height="24.65"/>
            </clipPath>
<clipPath id="terminal-3931764673-line-11">
    <rect x="0" y="269.9" width="1464" height="24.65"/>
            </clipPath>
<clipPath id="terminal-3931764673-line-12">
    <rect x="0" y="294.3" width="1464" height="24.65"/>
            </clipPath>
<clipPath id="terminal-3931764673-line-13">
    <rect x="0" y="318.7" width="1464" height="24.65"/>
            </clipPath>
<clipPath id="terminal-3931764673-line-14">
    <rect x="0" y="343.1" width="1464" height="24.65"/>
            </clipPath>
<clipPath id="terminal-3931764673-line-15">
    <rect x="0" y="367.5" width="1464" height="24.65"/>
            </clipPath>
<clipPath id="terminal-3931764673-line-16">
    <rect x="0" y="391.9" width="1464" height="24.65"/>
            </clipPath>
<clipPath id="terminal-3931764673-line-17">
    <rect x="0" y="416.3" width="1464" height="24.65"/>
            </clipPath>
<clipPath id="terminal-3931764673-line-18">
    <rect x="0" y="440.7" width="1464" height="24.65"/>
            </clipPath>
<clipPath id="terminal-3931764673-line-19">
    <rect x="0" y="465.1" width="1464" height="24.65"/>
            </clipPath>
<clipPath id="terminal-3931764673-line-20">
    <rect x="0" y="489.5" width="1464" height="24.65"/>
            </clipPath>
<clipPath id="terminal-3931764673-line-21">
    <rect x="0" y="513.9" width="1464" height="24.65"/>
            </clipPath>
<clipPath id="terminal-3931764673-line-22">
    <rect x="0" y="538.3" width="1464" height="24.65"/>
            </clipPath>
<clipPath id="terminal-3931764673-line-23">
    <rect x="0" y="562.7" width="1464" height="24.65"/>
            </clipPath>
<clipPath id="terminal-3931764673-line-24">
    <rect x="0" y="587.1" width="1464" height="24.65"/>
            </clipPath>
<clipPath id="terminal-3931764673-line-25">
    <rect x="0" y="611.5" width="1464" height="24.65"/>
            </clipPath>
<clipPath id="terminal-3931764673-line-26">
    <rect x="0" y="635.9" width="1464" height="24.65"/>
            </clipPath>
<clipPath id="terminal-3931764673-line-27">
    <rect x="0" y="660.3" width="1464" height="24.65"/>
            </clipPath>
<clipPath id="terminal-3931764673-line-28">
    <rect x="0" y="684.7" width="1464" height="24.65"/>
            </clipPath>
<clipPath id="terminal-3931764673-line-29">
    <rect x="0" y="709.1" width="1464" height="24.65"/>
            </clipPath>
<clipPath id="terminal-3931764673-line-30">
    <rect x="0" y="733.5" width="1464" height="24.65"/>
            </clipPath>
<clipPath id="terminal-3931764673-line-31">
    <rect x="0" y="757.9" width="1464" height="24.65"/>
            </clipPath>
<clipPath id="terminal-3931764673-line-32">
    <rect x="0" y="782.3" width="1464" height="24.65"/>
            </clipPath>
<clipPath id="terminal-3931764673-line-33">
    <rect x="0" y="806.7" width="1464" height="24.65"/>
            </clipPath>
<clipPath id="terminal-3931764673-line-34">
    <rect x="0" y="831.1" width="1464" height="24.65"/>
            </clipPath>
    </defs>

    <rect fill="#292929" stroke="rgba(255,255,255,0.35)" stroke-width="1" x="1" y="1" width="1480" height="926.4" rx="8"/><text class="terminal-3931764673-title" fill="#c5c8c6" text-anchor="middle" x="740" y="27">⚡&#160;BitlaForge</text>
            <g transform="translate(26,22)">
            <circle cx="0" cy="0" r="7" fill="#ff5f57"/>
            <circle cx="22" cy="0" r="7" fill="#febc2e"/>
            <circle cx="44" cy="0" r="7" fill="#28c840"/>
            </g>
        
    <g transform="translate(9, 41)" clip-path="url(#terminal-3931764673-clip-terminal)">
    <rect fill="#11111b" x="0" y="1.5" width="646.6" height="24.65" shape-rendering="crispEdges"/><rect fill="#11111b" x="646.6" y="1.5" width="158.6" height="24.65" shape-rendering="crispEdges"/><rect fill="#11111b" x="805.2" y="1.5" width="658.8" height="24.65" shape-rendering="crispEdges"/><rect fill="#2b4a7a" x="0" y="25.9" width="12.2" height="24.65" shape-rendering="crispEdges"/><rect fill="#2b4a7a" x="12.2" y="25.9" width="12.2" height="24.65" shape-rendering="crispEdges"/><rect fill="#2b4a7a" x="24.4" y="25.9" width="109.8" height="24.65" shape-rendering="crispEdges"/><rect fill="#181825" x="134.2" y="25.9" width="12.2" height="24.65" shape-rendering="crispEdges"/><rect fill="#181825" x="146.4" y="25.9" width="12.2" height="24.65" shape-rendering="crispEdges"/><rect fill="#181825" x="158.6" y="25.9" width="36.6" height="24.65" shape-rendering="crispEdges"/><rect fill="#181825" x="195.2" y="25.9" width="12.2" height="24.65" shape-rendering="crispEdges"/><rect fill="#181825" x="207.4" y="25.9" width="12.2" height="24.65" shape-rendering="crispEdges"/><rect fill="#181825" x="219.6" y="25.9" width="73.2" height="24.65" shape-rendering="crispEdges"/><rect fill="#181825" x="292.8" y="25.9" width="12.2" height="24.65" shape-rendering="crispEdges"/><rect fill="#181825" x="305" y="25.9" width="12.2" height="24.65" shape-rendering="crispEdges"/><rect fill="#181825" x="317.2" y="25.9" width="48.8" height="24.65" shape-rendering="crispEdges"/><rect fill="#181825" x="366" y="25.9" width="12.2" height="24.65" shape-rendering="crispEdges"/><rect fill="#181825" x="378.2" y="25.9" width="12.2" height="24.65" shape-rendering="crispEdges"/><rect fill="#181825" x="390.4" y="25.9" width="48.8" height="24.65" shape-rendering="crispEdges"/><rect fill="#181825" x="439.2" y="25.9" width="1024.8" height="24.65" shape-rendering="crispEdges"/><rect fill="#1e1e2e" x="0" y="50.3" width="1464" height="24.65" shape-rendering="crispEdges"/><rect fill="#1e1e2e" x="0" y="74.7" width="24.4" height="24.65" shape-rendering="crispEdges"/><rect fill="#1e1e2e" x="24.4" y="74.7" width="512.4" height="24.65" shape-rendering="crispEdges"/><rect fill="#1e1e2e" x="536.8" y="74.7" width="927.2" height="24.65" shape-rendering="crispEdges"/><rect fill="#1e1e2e" x="0" y="99.1" width="24.4" height="24.65" shape-rendering="crispEdges"/><rect fill="#1e1e2e" x="24.4" y="99.1" width="414.8" height="24.65" shape-rendering="crispEdges"/><rect fill="#1e1e2e" x="439.2" y="99.1" width="97.6" height="24.65" shape-rendering="crispEdges"/><rect fill="#1e1e2e" x="536.8" y="99.1" width="927.2" height="24.65" shape-rendering="crispEdges"/><rect fill="#1e1e2e" x="0" y="123.5" width="24.4" height="24.65" shape-rendering="crispEdges"/><rect fill="#1e1e2e" x="24.4" y="123.5" width="1439.6" height="24.65" shape-rendering="crispEdges"/><rect fill="#1e1e2e" x="0" y="147.9" width="24.4" height="24.65" shape-rendering="crispEdges"/><rect fill="#1e1e2e" x="24.4" y="147.9" width="0" height="24.65" shape-rendering="crispEdges"/><rect fill="#1e1e2e" x="24.4" y="147.9" width="1439.6" height="24.65" shape-rendering="crispEdges"/><rect fill="#1e1e2e" x="0" y="172.3" width="24.4" height="24.65" shape-rendering="crispEdges"/><rect fill="#1e1e2e" x="24.4" y="172.3" width="48.8" height="24.65" shape-rendering="crispEdges"/><rect fill="#1e1e2e" x="73.2" y="172.3" width="134.2" height="24.65" shape-rendering="crispEdges"/><rect fill="#1e1e2e" x="207.4" y="172.3" width="36.6" height="24.65" shape-rendering="crispEdges"/><rect fill="#1e1e2e" x="244" y="172.3" width="109.8" height="24.65" shape-rendering="crispEdges"/><rect fill="#1e1e2e" x="353.8" y="172.3" width="1110.2" height="24.65" shape-rendering="crispEdges"/><rect fill="#1e1e2e" x="0" y="196.7" width="24.4" height="24.65" shape-rendering="crispEdges"/><rect fill="#1e1e2e" x="24.4" y="196.7" width="0" height="24.65" shape-rendering="crispEdges"/><rect fill="#1e1e2e" x="24.4" y="196.7" width="1439.6" height="24.65" shape-rendering="crispEdges"/><rect fill="#1e1e2e" x="0" y="221.1" width="24.4" height="24.65" shape-rendering="crispEdges"/><rect fill="#1e1e2e" x="24.4" y="221.1" width="597.8" height="24.65" shape-rendering="crispEdges"/><rect fill="#1e1e2e" x="622.2" y="221.1" width="841.8" height="24.65" shape-rendering="crispEdges"/><rect fill="#1e1e2e" x="0" y="245.5" width="24.4" height="24.65" shape-rendering="crispEdges"/><rect fill="#1e1e2e" x="24.4" y="245.5" width="0" height="24.65" shape-rendering="crispEdges"/><rect fill="#1e1e2e" x="24.4" y="245.5" width="1439.6" height="24.65" shape-rendering="crispEdges"/><rect fill="#1e1e2e" x="0" y="269.9" width="24.4" height="24.65" shape-rendering="crispEdges"/><rect fill="#1e1e2e" x="24.4" y="269.9" width="24.4" height="24.65" shape-rendering="crispEdges"/><rect fill="#1e1e2e" x="48.8" y="269.9" width="170.8" height="24.65" shape-rendering="crispEdges"/><rect fill="#1e1e2e" x="219.6" y="269.9" width="24.4" height="24.65" shape-rendering="crispEdges"/><rect fill="#1e1e2e" x="244" y="269.9" width="12.2" height="24.65" shape-rendering="crispEdges"/><rect fill="#1e1e2e" x="256.2" y="269.9" width="1207.8" height="24.65" shape-rendering="crispEdges"/><rect fill="#1e1e2e" x="0" y="294.3" width="24.4" height="24.65" shape-rendering="crispEdges"/><rect fill="#1e1e2e" x="24.4" y="294.3" width="24.4" height="24.65" shape-rendering="crispEdges"/><rect fill="#1e1e2e" x="48.8" y="294.3" width="170.8" height="24.65" shape-rendering="crispEdges"/><rect fill="#1e1e2e" x="219.6" y="294.3" width="24.4" height="24.65" shape-rendering="crispEdges"/><rect fill="#1e1e2e" x="244" y="294.3" width="12.2" height="24.65" shape-rendering="crispEdges"/><rect fill="#1e1e2e" x="256.2" y="294.3" width="1207.8" height="24.65" shape-rendering="crispEdges"/><rect fill="#1e1e2e" x="0" y="318.7" width="24.4" height="24.65" shape-rendering="crispEdges"/><rect fill="#1e1e2e" x="24.4" y="318.7" width="24.4" height="24.65" shape-rendering="crispEdges"/><rect fill="#1e1e2e" x="48.8" y="318.7" width="170.8" height="24.65" shape-rendering="crispEdges"/><rect fill="#1e1e2e" x="219.6" y="318.7" width="24.4" height="24.65" shape-rendering="crispEdges"/><rect fill="#1e1e2e" x="244" y="318.7" width="12.2" height="24.65" shape-rendering="crispEdges"/><rect fill="#1e1e2e" x="256.2" y="318.7" width="1207.8" height="24.65" shape-rendering="crispEdges"/><rect fill="#1e1e2e" x="0" y="343.1" width="24.4" height="24.65" shape-rendering="crispEdges"/><rect fill="#1e1e2e" x="24.4" y="343.1" width="24.4" height="24.65" shape-rendering="crispEdges"/><rect fill="#1e1e2e" x="48.8" y="343.1" width="170.8" height="24.65" shape-rendering="crispEdges"/><rect fill="#1e1e2e" x="219.6" y="343.1" width="24.4" height="24.65" shape-rendering="crispEdges"/><rect fill="#1e1e2e" x="244" y="343.1" width="12.2" height="24.65" shape-rendering="crispEdges"/><rect fill="#1e1e2e" x="256.2" y="343.1" width="1207.8" height="24.65" shape-rendering="crispEdges"/><rect fill="#1e1e2e" x="0" y="367.5" width="24.4" height="24.65" shape-rendering="crispEdges"/><rect fill="#1e1e2e" x="24.4" y="367.5" width="0" height="24.65" shape-rendering="crispEdges"/><rect fill="#1e1e2e" x="24.4" y="367.5" width="1439.6" height="24.65" shape-rendering="crispEdges"/><rect fill="#1e1e2e" x="0" y="391.9" width="24.4" height="24.65" shape-rendering="crispEdges"/><rect fill="#1e1e2e" x="24.4" y="391.9" width="597.8" height="24.65" shape-rendering="crispEdges"/><rect fill="#1e1e2e" x="622.2" y="391.9" width="841.8" height="24.65" shape-rendering="crispEdges"/><rect fill="#1e1e2e" x="0" y="416.3" width="24.4" height="24.65" shape-rendering="crispEdges"/><rect fill="#1e1e2e" x="24.4" y="416.3" width="0" height="24.65" shape-rendering="crispEdges"/><rect fill="#1e1e2e" x="24.4" y="416.3" width="1439.6" height="24.65" shape-rendering="crispEdges"/><rect fill="#1e1e2e" x="0" y="440.7" width="24.4" height="24.65" shape-rendering="crispEdges"/><rect fill="#1e1e2e" x="24.4" y="440.7" width="24.4" height="24.65" shape-rendering="crispEdges"/><rect fill="#1e1e2e" x="48.8" y="440.7" width="170.8" height="24.65" shape-rendering="crispEdges"/><rect fill="#1e1e2e" x="219.6" y="440.7" width="24.4" height="24.65" shape-rendering="crispEdges"/><rect fill="#1e1e2e" x="244" y="440.7" width="12.2" height="24.65" shape-rendering="crispEdges"/><rect fill="#1e1e2e" x="256.2" y="440.7" width="1207.8" height="24.65" shape-rendering="crispEdges"/><rect fill="#1e1e2e" x="0" y="465.1" width="24.4" height="24.65" shape-rendering="crispEdges"/><rect fill="#1e1e2e" x="24.4" y="465.1" width="24.4" height="24.65" shape-rendering="crispEdges"/><rect fill="#1e1e2e" x="48.8" y="465.1" width="170.8" height="24.65" shape-rendering="crispEdges"/><rect fill="#1e1e2e" x="219.6" y="465.1" width="24.4" height="24.65" shape-rendering="crispEdges"/><rect fill="#1e1e2e" x="244" y="465.1" width="12.2" height="24.65" shape-rendering="crispEdges"/><rect fill="#1e1e2e" x="256.2" y="465.1" width="1207.8" height="24.65" shape-rendering="crispEdges"/><rect fill="#1e1e2e" x="0" y="489.5" width="24.4" height="24.65" shape-rendering="crispEdges"/><rect fill="#1e1e2e" x="24.4" y="489.5" width="24.4" height="24.65" shape-rendering="crispEdges"/><rect fill="#1e1e2e" x="48.8" y="489.5" width="170.8" height="24.65" shape-rendering="crispEdges"/><rect fill="#1e1e2e" x="219.6" y="489.5" width="24.4" height="24.65" shape-rendering="crispEdges"/><rect fill="#1e1e2e" x="244" y="489.5" width="12.2" height="24.65" shape-rendering="crispEdges"/><rect fill="#1e1e2e" x="256.2" y="489.5" width="1207.8" height="24.65" shape-rendering="crispEdges"/><rect fill="#1e1e2e" x="0" y="513.9" width="24.4" height="24.65" shape-rendering="crispEdges"/><rect fill="#1e1e2e" x="24.4" y="513.9" width="24.4" height="24.65" shape-rendering="crispEdges"/><rect fill="#1e1e2e" x="48.8" y="513.9" width="170.8" height="24.65" shape-rendering="crispEdges"/><rect fill="#1e1e2e" x="219.6" y="513.9" width="24.4" height="24.65" shape-rendering="crispEdges"/><rect fill="#1e1e2e" x="244" y="513.9" width="12.2" height="24.65" shape-rendering="crispEdges"/><rect fill="#1e1e2e" x="256.2" y="513.9" width="1207.8" height="24.65" shape-rendering="crispEdges"/><rect fill="#1e1e2e" x="0" y="538.3" width="24.4" height="24.65" shape-rendering="crispEdges"/><rect fill="#1e1e2e" x="24.4" y="538.3" width="0" height="24.65" shape-rendering="crispEdges"/><rect fill="#1e1e2e" x="24.4" y="538.3" width="1439.6" height="24.65" shape-rendering="crispEdges"/><rect fill="#1e1e2e" x="0" y="562.7" width="24.4" height="24.65" shape-rendering="crispEdges"/><rect fill="#1e1e2e" x="24.4" y="562.7" width="597.8" height="24.65" shape-rendering="crispEdges"/><rect fill="#1e1e2e" x="622.2" y="562.7" width="841.8" height="24.65" shape-rendering="crispEdges"/><rect fill="#1e1e2e" x="0" y="587.1" width="24.4" height="24.65" shape-rendering="crispEdges"/><rect fill="#1e1e2e" x="24.4" y="587.1" width="0" height="24.65" shape-rendering="crispEdges"/><rect fill="#1e1e2e" x="24.4" y="587.1" width="1439.6" height="24.65" shape-rendering="crispEdges"/><rect fill="#1e1e2e" x="0" y="611.5" width="24.4" height="24.65" shape-rendering="crispEdges"/><rect fill="#1e1e2e" x="24.4" y="611.5" width="24.4" height="24.65" shape-rendering="crispEdges"/><rect fill="#1e1e2e" x="48.8" y="611.5" width="170.8" height="24.65" shape-rendering="crispEdges"/><rect fill="#1e1e2e" x="219.6" y="611.5" width="24.4" height="24.65" shape-rendering="crispEdges"/><rect fill="#1e1e2e" x="244" y="611.5" width="12.2" height="24.65" shape-rendering="crispEdges"/><rect fill="#1e1e2e" x="256.2" y="611.5" width="1207.8" height="24.65" shape-rendering="crispEdges"/><rect fill="#1e1e2e" x="0" y="635.9" width="24.4" height="24.65" shape-rendering="crispEdges"/><rect fill="#1e1e2e" x="24.4" y="635.9" width="24.4" height="24.65" shape-rendering="crispEdges"/><rect fill="#1e1e2e" x="48.8" y="635.9" width="170.8" height="24.65" shape-rendering="crispEdges"/><rect fill="#1e1e2e" x="219.6" y="635.9" width="24.4" height="24.65" shape-rendering="crispEdges"/><rect fill="#1e1e2e" x="244" y="635.9" width="280.6" height="24.65" shape-rendering="crispEdges"/><rect fill="#1e1e2e" x="524.6" y="635.9" width="939.4" height="24.65" shape-rendering="crispEdges"/><rect fill="#1e1e2e" x="0" y="660.3" width="24.4" height="24.65" shape-rendering="crispEdges"/><rect fill="#1e1e2e" x="24.4" y="660.3" width="0" height="24.65" shape-rendering="crispEdges"/><rect fill="#1e1e2e" x="24.4" y="660.3" width="1439.6" height="24.65" shape-rendering="crispEdges"/><rect fill="#1e1e2e" x="0" y="684.7" width="24.4" height="24.65" shape-rendering="crispEdges"/><rect fill="#1e1e2e" x="24.4" y="684.7" width="1439.6" height="24.65" shape-rendering="crispEdges"/><rect fill="#1e1e2e" x="0" y="709.1" width="24.4" height="24.65" shape-rendering="crispEdges"/><rect fill="#2b4a7a" x="24.4" y="709.1" width="24.4" height="24.65" shape-rendering="crispEdges"/><rect fill="#2b4a7a" x="48.8" y="709.1" width="158.6" height="24.65" shape-rendering="crispEdges"/><rect fill="#2b4a7a" x="207.4" y="709.1" width="24.4" height="24.65" shape-rendering="crispEdges"/><rect fill="#1e1e2e" x="231.8" y="709.1" width="24.4" height="24.65" shape-rendering="crispEdges"/><rect fill="#45475a" x="256.2" y="709.1" width="24.4" height="24.65" shape-rendering="crispEdges"/><rect fill="#45475a" x="280.6" y="709.1" width="146.4" height="24.65" shape-rendering="crispEdges"/><rect fill="#45475a" x="427" y="709.1" width="24.4" height="24.65" shape-rendering="crispEdges"/><rect fill="#1e1e2e" x="451.4" y="709.1" width="1012.6" height="24.65" shape-rendering="crispEdges"/><rect fill="#1e1e2e" x="0" y="733.5" width="24.4" height="24.65" shape-rendering="crispEdges"/><rect fill="#1e1e2e" x="24.4" y="733.5" width="1439.6" height="24.65" shape-rendering="crispEdges"/><rect fill="#1e1e2e" x="0" y="757.9" width="24.4" height="24.65" shape-rendering="crispEdges"/><rect fill="#1e1e2e" x="24.4" y="757.9" width="1439.6" height="24.65" shape-rendering="crispEdges"/><rect fill="#1e1e2e" x="0" y="782.3" width="24.4" height="24.65" shape-rendering="crispEdges"/><rect fill="#1e1e2e" x="24.4" y="782.3" width="1439.6" height="24.65" shape-rendering="crispEdges"/><rect fill="#1e1e2e" x="0" y="806.7" width="24.4" height="24.65" shape-rendering="crispEdges"/><rect fill="#1e1e2e" x="24.4" y="806.7" width="1439.6" height="24.65" shape-rendering="crispEdges"/><rect fill="#1e1e2e" x="0" y="831.1" width="24.4" height="24.65" shape-rendering="crispEdges"/><rect fill="#1e1e2e" x="24.4" y="831.1" width="1439.6" height="24.65" shape-rendering="crispEdges"/><rect fill="#1e1e2e" x="0" y="855.5" width="1464" height="24.65" shape-rendering="crispEdges"/>
    <g class="terminal-3931764673-matrix">
    <text class="terminal-3931764673-r2" x="646.6" y="20" textLength="146.4" clip-path="url(#terminal-3931764673-line-0)">⚡&#160;BitlaForge</text><text class="terminal-3931764673-r1" x="1464" y="20" textLength="12.2" clip-path="url(#terminal-3931764673-line-0)">
</text><text class="terminal-3931764673-r4" x="12.2" y="44.4" textLength="12.2" clip-path="url(#terminal-3931764673-line-1)">D</text><text class="terminal-3931764673-r3" x="24.4" y="44.4" textLength="109.8" clip-path="url(#terminal-3931764673-line-1)">ashboard&#160;</text><text class="terminal-3931764673-r6" x="146.4" y="44.4" textLength="12.2" clip-path="url(#terminal-3931764673-line-1)">L</text><text class="terminal-3931764673-r5" x="158.6" y="44.4" textLength="36.6" clip-path="url(#terminal-3931764673-line-1)">og&#160;</text><text class="terminal-3931764673-r6" x="207.4" y="44.4" textLength="12.2" clip-path="url(#terminal-3931764673-line-1)">C</text><text class="terminal-3931764673-r5" x="219.6" y="44.4" textLength="73.2" clip-path="url(#terminal-3931764673-line-1)">onfig&#160;</text><text class="terminal-3931764673-r6" x="305" y="44.4" textLength="12.2" clip-path="url(#terminal-3931764673-line-1)">H</text><text class="terminal-3931764673-r5" x="317.2" y="44.4" textLength="48.8" clip-path="url(#terminal-3931764673-line-1)">elp&#160;</text><text class="terminal-3931764673-r6" x="378.2" y="44.4" textLength="12.2" clip-path="url(#terminal-3931764673-line-1)">Q</text><text class="terminal-3931764673-r5" x="390.4" y="44.4" textLength="48.8" clip-path="url(#terminal-3931764673-line-1)">uit&#160;</text><text class="terminal-3931764673-r1" x="1464" y="44.4" textLength="12.2" clip-path="url(#terminal-3931764673-line-1)">
</text><text class="terminal-3931764673-r1" x="1464" y="68.8" textLength="12.2" clip-path="url(#terminal-3931764673-line-2)">
</text><text class="terminal-3931764673-r1" x="1464" y="93.2" textLength="12.2" clip-path="url(#terminal-3931764673-line-3)">
</text><text class="terminal-3931764673-r2" x="24.4" y="117.6" textLength="402.6" clip-path="url(#terminal-3931764673-line-4)">⚡&#160;&#160;BitlaForge&#160;—&#160;Miner&#160;Overview&#160;—&#160;</text><text class="terminal-3931764673-r2" x="439.2" y="117.6" textLength="97.6" clip-path="url(#terminal-3931764673-line-4)">tphome02</text><text class="terminal-3931764673-r1" x="1464" y="117.6" textLength="12.2" clip-path="url(#terminal-3931764673-line-4)">
</text><text class="terminal-3931764673-r1" x="1464" y="142" textLength="12.2" clip-path="url(#terminal-3931764673-line-5)">
</text><text class="terminal-3931764673-r1" x="1464" y="166.4" textLength="12.2" clip-path="url(#terminal-3931764673-line-6)">
</text><text class="terminal-3931764673-r7" x="73.2" y="190.8" textLength="134.2" clip-path="url(#terminal-3931764673-line-7)">Miner&#160;state</text><text class="terminal-3931764673-r8" x="244" y="190.8" textLength="109.8" clip-path="url(#terminal-3931764673-line-7)">○&#160;stopped</text><text class="terminal-3931764673-r1" x="1464" y="190.8" textLength="12.2" clip-path="url(#terminal-3931764673-line-7)">
</text><text class="terminal-3931764673-r1" x="1464" y="215.2" textLength="12.2" clip-path="url(#terminal-3931764673-line-8)">
</text><text class="terminal-3931764673-r2" x="24.4" y="239.6" textLength="597.8" clip-path="url(#terminal-3931764673-line-9)">──&#160;Pool&#160;&amp;&#160;Wallet&#160;────────────────────────────────</text><text class="terminal-3931764673-r1" x="1464" y="239.6" textLength="12.2" clip-path="url(#terminal-3931764673-line-9)">
</text><text class="terminal-3931764673-r1" x="1464" y="264" textLength="12.2" clip-path="url(#terminal-3931764673-line-10)">
</text><text class="terminal-3931764673-r7" x="48.8" y="288.4" textLength="170.8" clip-path="url(#terminal-3931764673-line-11)">Pool&#160;&#160;&#160;&#160;&#160;&#160;&#160;&#160;&#160;&#160;</text><text class="terminal-3931764673-r5" x="244" y="288.4" textLength="12.2" clip-path="url(#terminal-3931764673-line-11)">—</text><text class="terminal-3931764673-r1" x="1464" y="288.4" textLength="12.2" clip-path="url(#terminal-3931764673-line-11)">
</text><text class="terminal-3931764673-r7" x="48.8" y="312.8" textLength="170.8" clip-path="url(#terminal-3931764673-line-12)">Port&#160;&#160;&#160;&#160;&#160;&#160;&#160;&#160;&#160;&#160;</text><text class="terminal-3931764673-r5" x="244" y="312.8" textLength="12.2" clip-path="url(#terminal-3931764673-line-12)">—</text><text class="terminal-3931764673-r1" x="1464" y="312.8" textLength="12.2" clip-path="url(#terminal-3931764673-line-12)">
</text><text class="terminal-3931764673-r7" x="48.8" y="337.2" textLength="170.8" clip-path="url(#terminal-3931764673-line-13)">Wallet&#160;&#160;&#160;&#160;&#160;&#160;&#160;&#160;</text><text class="terminal-3931764673-r5" x="244" y="337.2" textLength="12.2" clip-path="url(#terminal-3931764673-line-13)">—</text><text class="terminal-3931764673-r1" x="1464" y="337.2" textLength="12.2" clip-path="url(#terminal-3931764673-line-13)">
</text><text class="terminal-3931764673-r7" x="48.8" y="361.6" textLength="170.8" clip-path="url(#terminal-3931764673-line-14)">Algorithm&#160;&#160;&#160;&#160;&#160;</text><text class="terminal-3931764673-r5" x="244" y="361.6" textLength="12.2" clip-path="url(#terminal-3931764673-line-14)">—</text><text class="terminal-3931764673-r1" x="1464" y="361.6" textLength="12.2" clip-path="url(#terminal-3931764673-line-14)">
</text><text class="terminal-3931764673-r1" x="1464" y="386" textLength="12.2" clip-path="url(#terminal-3931764673-line-15)">
</text><text class="terminal-3931764673-r2" x="24.4" y="410.4" textLength="597.8" clip-path="url(#terminal-3931764673-line-16)">──&#160;Performance&#160;──────────────────────────────────</text><text class="terminal-3931764673-r1" x="1464" y="410.4" textLength="12.2" clip-path="url(#terminal-3931764673-line-16)">
</text><text class="terminal-3931764673-r1" x="1464" y="434.8" textLength="12.2" clip-path="url(#terminal-3931764673-line-17)">
</text><text class="terminal-3931764673-r7" x="48.8" y="459.2" textLength="170.8" clip-path="url(#terminal-3931764673-line-18)">Threads&#160;&#160;&#160;&#160;&#160;&#160;&#160;</text><text class="terminal-3931764673-r5" x="244" y="459.2" textLength="12.2" clip-path="url(#terminal-3931764673-line-18)">—</text><text class="terminal-3931764673-r1" x="1464" y="459.2" textLength="12.2" clip-path="url(#terminal-3931764673-line-18)">
</text><text class="terminal-3931764673-r7" x="48.8" y="483.6" textLength="170.8" clip-path="url(#terminal-3931764673-line-19)">Hashrate&#160;&#160;&#160;&#160;&#160;&#160;</text><text class="terminal-3931764673-r5" x="244" y="483.6" textLength="12.2" clip-path="url(#terminal-3931764673-line-19)">—</text><text class="terminal-3931764673-r1" x="1464" y="483.6" textLength="12.2" clip-path="url(#terminal-3931764673-line-19)">
</text><text class="terminal-3931764673-r7" x="48.8" y="508" textLength="170.8" clip-path="url(#terminal-3931764673-line-20)">minerd&#160;CPU&#160;&#160;&#160;&#160;</text><text class="terminal-3931764673-r5" x="244" y="508" textLength="12.2" clip-path="url(#terminal-3931764673-line-20)">—</text><text class="terminal-3931764673-r1" x="1464" y="508" textLength="12.2" clip-path="url(#terminal-3931764673-line-20)">
</text><text class="terminal-3931764673-r7" x="48.8" y="532.4" textLength="170.8" clip-path="url(#terminal-3931764673-line-21)">minerd&#160;RAM&#160;&#160;&#160;&#160;</text><text class="terminal-3931764673-r5" x="244" y="532.4" textLength="12.2" clip-path="url(#terminal-3931764673-line-21)">—</text><text class="terminal-3931764673-r1" x="1464" y="532.4" textLength="12.2" clip-path="url(#terminal-3931764673-line-21)">
</text><text class="terminal-3931764673-r1" x="1464" y="556.8" textLength="12.2" clip-path="url(#terminal-3931764673-line-22)">
</text><text class="terminal-3931764673-r2" x="24.4" y="581.2" textLength="597.8" clip-path="url(#terminal-3931764673-line-23)">──&#160;Session&#160;──────────────────────────────────────</text><text class="terminal-3931764673-r1" x="1464" y="581.2" textLength="12.2" clip-path="url(#terminal-3931764673-line-23)">
</text><text class="terminal-3931764673-r1" x="1464" y="605.6" textLength="12.2" clip-path="url(#terminal-3931764673-line-24)">
</text><text class="terminal-3931764673-r7" x="48.8" y="630" textLength="170.8" clip-path="url(#terminal-3931764673-line-25)">Uptime&#160;&#160;&#160;&#160;&#160;&#160;&#160;&#160;</text><text class="terminal-3931764673-r5" x="244" y="630" textLength="12.2" clip-path="url(#terminal-3931764673-line-25)">—</text><text class="terminal-3931764673-r1" x="1464" y="630" textLength="12.2" clip-path="url(#terminal-3931764673-line-25)">
</text><text class="terminal-3931764673-r7" x="48.8" y="654.4" textLength="170.8" clip-path="url(#terminal-3931764673-line-26)">Shares&#160;&#160;&#160;&#160;&#160;&#160;&#160;&#160;</text><text class="terminal-3931764673-r5" x="244" y="654.4" textLength="280.6" clip-path="url(#terminal-3931764673-line-26)">—&#160;accepted&#160;/&#160;—&#160;rejected</text><text class="terminal-3931764673-r1" x="1464" y="654.4" textLength="12.2" clip-path="url(#terminal-3931764673-line-26)">
</text><text class="terminal-3931764673-r1" x="1464" y="678.8" textLength="12.2" clip-path="url(#terminal-3931764673-line-27)">
</text><text class="terminal-3931764673-r1" x="1464" y="703.2" textLength="12.2" clip-path="url(#terminal-3931764673-line-28)">
</text><text class="terminal-3931764673-r3" x="48.8" y="727.6" textLength="158.6" clip-path="url(#terminal-3931764673-line-29)">&#160;Start&#160;Miner&#160;</text><text class="terminal-3931764673-r3" x="280.6" y="727.6" textLength="146.4" clip-path="url(#terminal-3931764673-line-29)">&#160;Test&#160;Miner&#160;</text><text class="terminal-3931764673-r1" x="1464" y="727.6" textLength="12.2" clip-path="url(#terminal-3931764673-line-29)">
</text><text class="terminal-3931764673-r1" x="1464" y="752" textLength="12.2" clip-path="url(#terminal-3931764673-line-30)">
</text><text class="terminal-3931764673-r1" x="1464" y="776.4" textLength="12.2" clip-path="url(#terminal-3931764673-line-31)">
</text><text class="terminal-3931764673-r1" x="1464" y="800.8" textLength="12.2" clip-path="url(#terminal-3931764673-line-32)">
</text><text class="terminal-3931764673-r1" x="1464" y="825.2" textLength="12.2" clip-path="url(#terminal-3931764673-line-33)">
</text><text class="terminal-3931764673-r1" x="1464" y="849.6" textLength="12.2" clip-path="url(#terminal-3931764673-line-34)">
</text>
    </g>
    </g>
</svg>
